<svg width="22" height="23" viewBox="0 0 22 23" fill="none" xmlns="http://www.w3.org/2000/svg">
<path d="M20.5557 19.1104C21.1076 19.1106 21.5555 19.5584 21.5557 20.1104C21.5557 20.6625 21.1077 21.1101 20.5557 21.1104H1C0.447715 21.1104 0 20.6626 0 20.1104C0.000176302 19.5582 0.447824 19.1104 1 19.1104H20.5557ZM20.5557 10.5547C21.1076 10.555 21.5554 11.0028 21.5557 11.5547C21.5557 12.1068 21.1077 12.5544 20.5557 12.5547H1C0.447715 12.5547 0 12.107 0 11.5547C0.000234535 11.0026 0.44786 10.5547 1 10.5547H20.5557ZM20.5557 2C21.1077 2.00029 21.5557 2.4479 21.5557 3C21.5554 3.5519 21.1076 3.99971 20.5557 4H1C0.44786 4 0.000234599 3.55209 0 3C0 2.44772 0.447715 2 1 2H20.5557Z" fill="#502CEF"/>
<circle cx="15" cy="3" r="2.5" fill="white" stroke="#502CEF"/>
<circle cx="6" cy="11" r="2.5" fill="white" stroke="#502CEF"/>
<circle cx="13" cy="20" r="2.5" fill="white" stroke="#502CEF"/>
</svg>
