<svg width="22" height="20" viewBox="0 0 22 20" fill="none" xmlns="http://www.w3.org/2000/svg">
<path d="M20.5557 17.1104C21.1076 17.1106 21.5555 17.5584 21.5557 18.1104C21.5557 18.6625 21.1077 19.1101 20.5557 19.1104H1C0.447715 19.1104 0 18.6626 0 18.1104C0.000176302 17.5582 0.447824 17.1104 1 17.1104H20.5557ZM20.5557 8.55469C21.1076 8.55498 21.5554 9.00278 21.5557 9.55469C21.5557 10.1068 21.1077 10.5544 20.5557 10.5547H1C0.447715 10.5547 0 10.107 0 9.55469C0.000234535 9.0026 0.44786 8.55469 1 8.55469H20.5557ZM20.5557 0C21.1077 0.000293339 21.5557 0.447896 21.5557 1C21.5554 1.5519 21.1076 1.99971 20.5557 2H1C0.44786 2 0.000234599 1.55209 0 1C0 0.447715 0.447715 0 1 0H20.5557Z" fill="#502CEF"/>
</svg>
