<svg preserveAspectRatio="none" width="100%" height="100%" overflow="visible" style="display: block;" viewBox="0 0 21.9951 21.9951" fill="none" xmlns="http://www.w3.org/2000/svg">
<path id="Union" d="M10.4688 0.0146484C11.1554 0.082974 11.8008 0.386699 12.293 0.878906L20.999 9.58496C21.6368 10.2268 21.9951 11.0951 21.9951 12L21.9912 12.1689C21.9496 13.0124 21.597 13.8132 20.999 14.415L14.415 20.999C13.8132 21.597 13.0124 21.9496 12.1689 21.9912L12 21.9951C11.0951 21.9951 10.2268 21.6368 9.58496 20.999L0.878906 12.293C0.386699 11.8008 0.082974 11.1554 0.0146484 10.4688L0 10.1719V3C0 2.20435 0.316297 1.44152 0.878906 0.878906C1.44152 0.316297 2.20435 0 3 0H10.1719L10.4688 0.0146484ZM3 2C2.73478 2 2.48051 2.10543 2.29297 2.29297C2.10543 2.48051 2 2.73478 2 3V10.1719L2.00488 10.2705C2.02764 10.4994 2.12884 10.7148 2.29297 10.8789L10.9951 19.5811L11.0996 19.6748C11.3529 19.881 11.6705 19.9951 12 19.9951L12.1406 19.9883C12.4655 19.9561 12.7712 19.8131 13.0049 19.5811L19.583 13.0029C19.8139 12.7695 19.9562 12.4646 19.9883 12.1406L19.9951 12C19.9951 11.6244 19.8471 11.264 19.583 10.9971L10.8789 2.29297C10.7148 2.12884 10.4994 2.02764 10.2705 2.00488L10.1719 2H3ZM6.5 5C7.32843 5 8 5.67157 8 6.5C8 7.32843 7.32843 8 6.5 8C5.67157 8 5 7.32843 5 6.5C5 5.67157 5.67157 5 6.5 5Z" fill="var(--fill-0, #502CEF)"/>
</svg>
